<?xml version="1.0" standalone="no"?>
<!DOCTYPE svg PUBLIC "-//W3C//DTD SVG 20010904//EN"
 "http://www.w3.org/TR/2001/REC-SVG-20010904/DTD/svg10.dtd">
<svg version="1.0" xmlns="http://www.w3.org/2000/svg"
 width="1024.000000pt" height="1024.000000pt" viewBox="0 0 1024.000000 1024.000000"
 preserveAspectRatio="xMidYMid meet">
<metadata>
Created by potrace 1.11, written by Peter Selinger 2001-2013
</metadata>
<g transform="translate(0.000000,1024.000000) scale(0.100000,-0.100000)"
fill="#000000" stroke="none">
<path d="M4985 9601 c-4 -3 -139 -10 -272 -14 -29 -1 -53 -5 -53 -9 0 -3 -7
-5 -16 -4 -9 1 -41 -1 -72 -6 -32 -4 -75 -10 -97 -13 -22 -3 -65 -9 -95 -15
-30 -5 -68 -11 -85 -14 -63 -11 -223 -46 -295 -66 -41 -11 -84 -23 -95 -26
-35 -9 -39 -10 -85 -24 -25 -7 -70 -21 -100 -32 -30 -11 -62 -22 -70 -23 -8
-2 -16 -4 -17 -5 -2 -2 -6 -3 -10 -4 -5 -1 -64 -24 -133 -51 -69 -27 -128 -48
-132 -47 -5 1 -8 -2 -8 -6 0 -4 -17 -14 -37 -21 -43 -16 -262 -123 -308 -151
-16 -10 -33 -19 -38 -19 -4 0 -17 -7 -30 -14 -97 -60 -179 -107 -187 -107 -6
0 -10 -4 -10 -8 0 -5 -12 -15 -27 -23 -16 -7 -44 -26 -64 -41 -20 -15 -40 -28
-43 -28 -4 0 -12 -5 -19 -10 -7 -6 -70 -54 -142 -107 -71 -53 -131 -100 -133
-104 -2 -5 -8 -9 -13 -9 -5 0 -17 -8 -27 -17 -10 -10 -41 -37 -69 -61 -28 -24
-67 -57 -86 -75 -19 -18 -45 -41 -58 -53 -13 -12 -31 -30 -40 -40 -9 -10 -55
-56 -103 -102 -47 -46 -86 -85 -86 -88 0 -2 -22 -26 -49 -54 -27 -27 -47 -50
-44 -50 2 0 -8 -13 -24 -29 -15 -16 -34 -38 -42 -49 -8 -12 -19 -18 -25 -15
-6 3 -8 3 -4 -2 8 -8 -11 -38 -57 -90 -14 -16 -35 -44 -46 -62 -11 -18 -25
-33 -30 -33 -5 0 -9 -7 -9 -15 0 -8 -4 -15 -10 -15 -5 0 -10 -7 -10 -15 0 -9
-7 -18 -15 -21 -8 -4 -15 -11 -15 -18 0 -6 -11 -23 -25 -38 -14 -15 -25 -29
-23 -30 2 -3 -52 -89 -62 -98 -3 -3 -11 -17 -19 -32 -8 -15 -23 -37 -33 -48
-10 -11 -16 -20 -13 -20 2 0 -9 -22 -25 -49 -17 -26 -30 -53 -30 -60 0 -6 -4
-11 -8 -11 -5 0 -17 -19 -28 -42 -10 -24 -21 -45 -24 -48 -9 -9 -110 -219
-110 -230 0 -5 -4 -10 -10 -10 -5 0 -10 -5 -10 -10 0 -6 -7 -27 -17 -48 -19
-43 -17 -39 -27 -74 -5 -16 -13 -25 -19 -21 -5 3 -7 2 -4 -4 3 -5 -12 -57 -35
-114 -23 -57 -41 -110 -41 -116 0 -7 -3 -13 -7 -13 -3 0 -7 -10 -7 -22 -1 -13
-7 -24 -13 -26 -5 -2 -8 -7 -6 -11 3 -4 -4 -34 -15 -66 -12 -33 -23 -73 -26
-90 -3 -16 -8 -32 -11 -35 -4 -3 -8 -14 -9 -25 -2 -25 -21 -105 -30 -125 -7
-18 -13 -47 -15 -77 -1 -13 -5 -23 -9 -23 -4 0 -5 -9 -2 -20 3 -11 1 -20 -4
-20 -5 0 -8 -12 -7 -27 1 -16 -3 -33 -8 -39 -5 -7 -8 -16 -7 -20 5 -29 -2 -55
-13 -48 -10 5 -10 4 -2 -5 11 -12 7 -74 -5 -67 -3 2 -5 -13 -5 -35 1 -23 -3
-39 -9 -39 -8 0 -8 -3 1 -12 8 -8 8 -16 0 -32 -6 -12 -11 -22 -10 -23 1 -2 2
-4 1 -5 -1 -5 -7 -102 -8 -141 0 -21 -5 -36 -10 -33 -5 4 -6 -5 -2 -21 4 -16
5 -44 1 -63 -3 -19 -6 -52 -5 -72 1 -21 -2 -38 -7 -38 -5 0 -4 -8 1 -19 6 -10
8 -20 6 -23 -9 -9 -12 -68 -4 -68 4 0 4 -12 1 -27 -8 -28 -7 -126 1 -215 2
-28 0 -48 -6 -48 -6 0 -6 -5 0 -12 11 -15 11 -28 -1 -47 -6 -9 -5 -12 1 -8 9
6 13 -17 15 -103 0 -8 4 -46 9 -85 5 -38 11 -92 13 -120 3 -27 5 -50 6 -50 1
0 3 -11 5 -25 6 -49 15 -106 23 -140 5 -19 8 -47 8 -62 -1 -14 2 -24 6 -22 4
2 7 -4 6 -13 0 -10 7 -49 15 -88 9 -38 13 -74 10 -79 -3 -5 -1 -6 5 -2 8 5 12
-1 12 -16 0 -13 7 -44 15 -70 8 -27 11 -48 8 -48 -3 0 -1 -6 4 -12 11 -14 39
-118 35 -130 -1 -5 2 -8 8 -8 5 0 10 -8 10 -17 0 -10 14 -56 31 -103 17 -47
32 -89 33 -95 1 -5 10 -27 19 -48 9 -21 18 -45 19 -55 2 -9 6 -19 9 -22 9 -8
54 -124 51 -133 -1 -4 3 -7 9 -7 6 0 9 -7 5 -15 -3 -8 -2 -15 2 -15 8 0 62
-110 61 -124 0 -5 3 -12 8 -15 4 -3 21 -30 36 -59 24 -45 26 -56 15 -70 -11
-15 -11 -15 3 -5 14 11 20 4 50 -54 19 -37 40 -74 47 -81 7 -8 10 -17 7 -22
-3 -4 2 -11 11 -14 10 -4 14 -14 11 -26 -3 -11 0 -18 5 -17 5 1 15 -7 21 -18
7 -10 18 -25 25 -33 7 -7 10 -17 7 -22 -3 -4 1 -10 9 -13 8 -3 22 -21 30 -39
9 -18 29 -49 46 -68 16 -19 30 -41 30 -47 0 -7 5 -13 10 -13 6 0 10 -7 10 -15
0 -8 3 -15 8 -15 4 0 18 -17 32 -37 14 -20 31 -43 38 -50 7 -7 10 -13 6 -13
-4 0 3 -9 16 -20 13 -11 19 -20 15 -20 -4 0 2 -9 14 -19 14 -12 20 -25 15 -32
-4 -7 -3 -10 2 -7 5 4 20 -7 34 -23 14 -16 42 -48 62 -70 21 -23 35 -46 31
-52 -3 -6 -2 -7 4 -4 11 7 45 -28 36 -37 -4 -3 1 -6 10 -6 10 0 17 -4 17 -8 0
-10 203 -216 247 -252 18 -13 29 -28 27 -32 -3 -4 0 -8 6 -8 16 0 60 -47 52
-56 -4 -4 -2 -5 3 -1 6 3 30 -12 53 -34 24 -21 47 -39 52 -39 6 0 10 -4 10 -8
0 -5 20 -24 45 -42 31 -23 44 -39 40 -50 -5 -11 -3 -12 6 -3 12 12 13 11 58
-27 10 -8 26 -20 37 -27 10 -6 18 -17 16 -25 -2 -7 0 -10 4 -6 8 8 64 -22 64
-34 0 -4 7 -8 15 -8 8 0 15 -4 15 -10 0 -5 6 -10 14 -10 8 0 21 -9 29 -20 8
-11 17 -17 20 -13 4 3 7 1 7 -5 0 -7 6 -11 13 -10 6 2 11 -3 9 -10 -1 -8 2
-11 7 -8 5 3 20 -3 34 -14 14 -11 28 -20 32 -20 6 0 96 -59 105 -69 3 -3 12
-7 20 -9 8 -2 17 -8 18 -13 2 -5 10 -9 18 -9 8 0 14 -5 14 -11 0 -5 4 -8 9 -5
5 3 20 -3 33 -14 14 -11 28 -16 32 -13 3 3 6 1 6 -5 0 -7 8 -12 19 -12 18 0
45 -23 37 -31 -2 -2 7 -5 21 -6 14 0 29 -7 34 -15 5 -7 9 -10 9 -5 0 10 62
-22 72 -37 4 -6 8 -7 8 -2 0 6 7 1 16 -10 8 -10 13 -14 9 -7 -4 9 1 9 22 -1
15 -7 51 -22 78 -34 28 -13 63 -29 78 -37 16 -8 35 -15 43 -15 8 0 14 -5 14
-11 0 -6 7 -9 15 -5 8 3 21 -2 30 -10 8 -9 15 -13 15 -10 0 3 13 0 30 -5 16
-6 28 -15 25 -19 -3 -4 5 -6 17 -2 14 3 19 1 14 -6 -4 -7 -2 -10 7 -6 7 2 27
0 43 -6 16 -6 31 -12 34 -12 3 0 26 -9 53 -19 26 -10 47 -16 47 -13 0 4 6 2
13 -3 6 -6 35 -16 62 -23 28 -7 55 -16 60 -19 6 -4 24 -8 40 -10 17 -2 32 -6
35 -10 3 -3 14 -6 25 -5 11 0 34 -4 50 -9 47 -14 49 -14 59 -15 5 0 13 -6 17
-14 6 -8 9 -9 9 -1 0 8 21 6 70 -7 39 -10 70 -16 70 -13 0 3 12 -2 26 -12 15
-9 23 -12 20 -6 -4 6 0 11 8 11 9 0 16 -4 16 -8 0 -5 16 -8 35 -7 19 2 38 -1
41 -6 3 -5 10 -7 15 -3 5 3 17 0 26 -8 14 -11 16 -11 8 1 -6 10 -4 12 4 6 7
-4 34 -9 60 -12 119 -10 136 -12 136 -13 0 -3 66 -8 117 -11 26 -1 45 -5 43
-10 -3 -4 -1 -11 5 -14 6 -4 9 -1 8 6 -2 7 5 15 16 17 12 3 16 0 11 -8 -6 -9
-2 -9 14 -1 20 11 25 8 22 -14 -1 -5 5 -2 12 7 13 16 15 16 31 0 16 -16 17
-16 10 2 -6 15 -4 17 7 10 12 -7 166 -8 322 0 27 1 47 -3 47 -9 0 -5 5 -3 10
5 9 13 10 13 10 0 0 -9 3 -11 8 -4 4 6 30 12 57 13 99 4 179 11 183 16 3 3 12
-1 20 -8 10 -7 13 -8 9 -1 -9 16 65 25 75 10 5 -8 8 -7 8 1 0 11 96 29 143 26
9 0 17 3 17 7 0 5 11 7 25 5 14 -1 25 1 25 4 0 3 16 7 36 9 25 1 33 -1 28 -10
-4 -7 -3 -8 5 -4 6 4 9 12 6 17 -4 5 4 9 17 10 13 0 30 2 38 4 72 19 90 22 90
16 0 -3 5 1 10 9 8 13 10 13 10 1 0 -12 3 -12 12 -3 15 15 42 16 32 0 -4 -7
-3 -8 5 -4 6 4 9 11 6 16 -5 7 70 26 88 22 4 -1 7 3 7 10 0 6 3 9 6 5 3 -3 29
2 57 10 29 9 58 16 65 16 6 0 12 5 12 10 0 6 3 8 6 4 4 -3 29 3 58 13 58 23
80 25 70 8 -4 -7 -3 -8 5 -4 6 4 9 11 6 16 -3 5 11 14 31 20 20 7 48 18 62 26
15 8 33 14 40 14 7 0 33 9 58 20 24 12 49 18 54 15 6 -4 13 1 16 9 3 9 10 16
16 16 5 0 35 12 66 26 31 15 63 27 70 27 6 0 12 4 12 8 0 7 60 33 73 30 4 0 7
3 7 8 0 5 20 17 45 26 25 10 50 24 56 31 10 12 14 11 26 -3 8 -10 12 -12 8 -5
-8 15 13 44 26 36 5 -3 7 -9 4 -14 -3 -5 -1 -11 4 -15 6 -3 8 5 5 20 -4 22 0
27 23 24 3 0 10 6 15 15 5 9 18 16 28 16 10 0 22 5 25 10 4 6 11 7 17 4 7 -4
8 -2 4 5 -5 7 4 15 23 22 17 6 31 15 31 21 0 5 5 6 10 3 6 -3 10 -2 10 3 0 5
20 20 45 33 25 13 45 27 45 31 0 5 5 8 10 8 11 0 61 33 94 63 11 10 26 15 34
12 7 -2 11 -1 8 4 -3 5 15 23 42 39 26 17 57 40 70 52 12 12 27 18 32 15 6 -3
10 1 10 9 0 8 13 23 30 33 16 9 30 21 30 25 0 4 4 8 9 8 5 0 23 13 41 30 18
16 36 27 41 24 5 -3 8 -1 7 3 -3 10 83 93 92 90 3 -1 23 17 44 40 21 24 42 40
47 37 5 -3 8 -2 7 3 -4 11 136 153 150 153 7 0 11 6 10 13 -2 6 3 11 10 9 6
-1 11 4 10 10 -2 7 3 12 10 10 8 -1 11 1 8 6 -8 14 61 85 75 76 8 -4 10 -3 5
4 -8 14 17 55 27 45 4 -3 7 -1 7 5 0 16 41 62 50 57 4 -3 7 3 6 13 0 9 5 16
12 14 6 -1 11 1 10 5 -3 15 14 43 23 37 5 -3 9 1 9 9 0 8 10 22 23 31 12 9 15
14 7 10 -8 -4 6 18 30 49 25 31 48 57 51 57 4 0 10 12 13 26 4 16 12 24 20 21
7 -3 19 -1 27 5 11 8 10 9 -3 4 -21 -6 -23 7 -5 26 7 7 16 21 20 31 4 11 12
15 19 11 7 -4 10 -4 6 1 -9 9 19 65 32 65 6 0 10 6 10 14 0 7 11 25 25 40 13
14 22 26 19 26 -3 0 3 13 12 29 10 17 22 27 27 24 6 -4 7 -1 2 7 -5 8 -2 18 9
26 10 7 17 15 17 18 -2 17 44 94 52 89 6 -4 7 -1 2 7 -5 8 -1 18 10 27 11 7
16 13 12 13 -10 0 23 63 37 72 6 4 8 8 4 8 -9 0 52 122 65 131 5 3 8 8 8 10
-2 14 13 49 21 49 5 0 7 4 4 9 -8 13 4 42 15 35 5 -3 6 3 2 12 -5 13 -3 15 7
9 9 -5 11 -4 6 3 -6 10 28 100 43 112 3 3 7 14 8 26 1 11 8 34 14 50 7 16 13
31 14 34 8 30 18 50 23 46 4 -2 8 8 9 23 1 15 7 40 14 56 7 17 14 39 16 50 2
10 7 22 11 25 4 3 7 11 8 18 1 6 2 21 3 33 0 12 5 17 13 13 6 -4 8 -3 5 3 -4
6 1 35 9 64 9 30 18 65 21 79 2 13 9 30 15 37 6 8 8 16 5 19 -3 3 1 29 10 57
8 29 17 61 18 72 5 31 15 78 22 105 3 14 7 36 9 50 8 77 28 166 38 172 8 6 7
8 -2 8 -7 0 -11 3 -8 8 5 9 17 83 21 132 1 19 6 78 11 130 4 52 8 105 7 118 0
12 4 22 10 22 6 0 6 5 0 13 -10 12 -10 54 0 63 3 3 1 19 -3 35 -5 16 -6 29 -2
29 8 0 7 219 -2 227 -3 3 -1 13 4 23 5 10 6 20 3 24 -11 11 -12 36 -2 36 6 0
7 6 2 13 -4 6 -8 26 -9 42 -4 61 -15 191 -19 230 -12 110 -14 130 -15 130 -2
0 -7 28 -14 80 -6 50 -12 86 -21 128 -20 91 -24 120 -20 127 3 5 1 10 -4 12
-6 1 -12 19 -14 38 -2 19 -7 42 -10 50 -4 13 -18 63 -21 80 -1 3 -5 11 -10 19
-7 11 -6 12 5 6 12 -8 12 -6 0 8 -7 9 -10 17 -6 17 4 0 3 6 -3 13 -6 7 -13 24
-15 37 -8 43 -20 85 -26 95 -3 6 -6 15 -7 20 -1 6 -9 29 -18 53 -8 23 -13 42
-10 42 2 0 -3 11 -12 25 -8 13 -13 28 -10 34 3 5 3 11 -1 13 -11 4 -46 98 -47
125 -1 11 -3 20 -6 18 -5 -3 -76 152 -84 180 -1 6 -27 61 -58 123 -31 61 -54
112 -50 112 4 0 2 4 -4 8 -6 4 -26 34 -44 67 -18 33 -37 66 -43 73 -5 6 -6 12
-3 12 4 0 2 6 -4 13 -19 23 -59 87 -54 87 2 0 -4 10 -16 22 -11 12 -20 27 -20
34 0 7 -4 14 -8 16 -9 3 -72 96 -72 105 0 3 -13 22 -30 43 -16 21 -30 40 -30
43 0 3 -11 18 -25 33 -13 14 -22 31 -18 37 3 6 1 7 -5 3 -7 -4 -12 -3 -12 2 0
8 -164 216 -207 262 -12 12 -20 28 -16 33 3 6 1 7 -4 4 -6 -4 -24 9 -39 29
-25 30 -250 257 -303 304 -30 27 -166 145 -178 155 -16 13 -29 23 -83 65 -25
19 -50 39 -56 45 -6 5 -22 17 -34 25 -13 8 -35 25 -50 38 -15 12 -33 22 -39
22 -6 0 -11 4 -11 8 0 5 -16 17 -35 28 -19 10 -35 22 -35 26 0 5 -6 8 -13 8
-8 0 -22 9 -32 20 -10 11 -24 20 -32 20 -7 0 -13 5 -13 10 0 6 -4 10 -8 10 -5
0 -58 30 -118 66 -138 84 -473 249 -624 307 -130 50 -143 55 -150 53 -3 0 -18
7 -33 17 -15 9 -27 15 -27 13 0 -3 -26 4 -57 15 -32 11 -65 22 -74 24 -9 2
-49 13 -89 25 -40 12 -80 23 -89 25 -9 2 -43 10 -76 18 -63 16 -206 47 -240
52 -11 2 -47 8 -80 13 -80 15 -135 23 -165 27 -152 17 -224 23 -348 30 -57 3
-108 7 -113 11 -5 3 -9 1 -9 -5 0 -6 -6 -8 -13 -5 -16 6 -227 11 -232 5z"/>
<path d="M9430 3759 c0 -5 5 -7 10 -4 6 3 10 8 10 11 0 2 -4 4 -10 4 -5 0 -10
-5 -10 -11z"/>
<path d="M9265 3260 c-3 -6 1 -7 9 -4 18 7 21 14 7 14 -6 0 -13 -4 -16 -10z"/>
<path d="M1156 2913 c-6 -14 -5 -15 5 -6 7 7 10 15 7 18 -3 3 -9 -2 -12 -12z"/>
<path d="M1947 1839 c7 -7 15 -10 18 -7 3 3 -2 9 -12 12 -14 6 -15 5 -6 -5z"/>
<path d="M8100 1766 c0 -2 8 -10 18 -17 15 -13 16 -12 3 4 -13 16 -21 21 -21
13z"/>
<path d="M7907 1559 c7 -7 15 -10 18 -7 3 3 -2 9 -12 12 -14 6 -15 5 -6 -5z"/>
<path d="M2426 1442 c-3 -5 1 -9 9 -9 8 0 12 4 9 9 -3 4 -7 8 -9 8 -2 0 -6 -4
-9 -8z"/>
<path d="M2550 1319 c0 -5 5 -7 10 -4 6 3 10 8 10 11 0 2 -4 4 -10 4 -5 0 -10
-5 -10 -11z"/>
<path d="M7467 1199 c7 -7 15 -10 18 -7 3 3 -2 9 -12 12 -14 6 -15 5 -6 -5z"/>
<path d="M7130 1086 c0 -2 7 -7 16 -10 8 -3 12 -2 9 4 -6 10 -25 14 -25 6z"/>
<path d="M6693 903 c4 -3 1 -13 -6 -22 -11 -14 -10 -14 5 -2 16 12 16 31 1 31
-4 0 -3 -3 0 -7z"/>
<path d="M6706 802 c-3 -5 1 -9 9 -9 8 0 12 4 9 9 -3 4 -7 8 -9 8 -2 0 -6 -4
-9 -8z"/>
<path d="M6320 760 c-9 -6 -10 -10 -3 -10 6 0 15 5 18 10 8 12 4 12 -15 0z"/>
<path d="M4190 686 c0 -2 7 -7 16 -10 8 -3 12 -2 9 4 -6 10 -25 14 -25 6z"/>
<path d="M5856 638 c3 -5 10 -6 15 -3 13 9 11 12 -6 12 -8 0 -12 -4 -9 -9z"/>
<path d="M5175 620 c-3 -5 -1 -10 4 -10 6 0 11 5 11 10 0 6 -2 10 -4 10 -3 0
-8 -4 -11 -10z"/>
<path d="M5290 620 c0 -5 5 -10 11 -10 5 0 7 5 4 10 -3 6 -8 10 -11 10 -2 0
-4 -4 -4 -10z"/>
<path d="M5353 585 c0 -8 4 -12 9 -9 5 3 6 10 3 15 -9 13 -12 11 -12 -6z"/>
<path d="M5200 560 c-9 -6 -10 -10 -3 -10 6 0 15 5 18 10 8 12 4 12 -15 0z"/>
</g>
</svg>
